<svg xmlns="http://www.w3.org/2000/svg" version="1.1" width="434.0006" height="129.4221" viewBox="0 0 434.0006 129.4221">
<path transform="matrix(1,0,0,-1,1,128.4221)" d="M91.042 42.7813 37.0001 42.8601 36.9601 67.6723 90.917 67.7151 97.9999 62.6091 98.0161 48.1093ZM90.438 108.2341 98.0161 102.7032 97.9999 91.7813 90.5 86.1721 37.0001 86.2563 37.0159 108.2032ZM131 114.7561 112 127.4221H0V24.4222L113.169 24.7561 130 36.4224V68.2563L116.6681 77.9221 131 86.4221Z" fill="#eef4ff"/>
<path transform="matrix(1,0,0,-1,1,128.4221)" d="M167.0006 127.4219H261.0006L274.5006 108.4218H193.0005L184.0005 102.172V48.4217L193.0005 42.4219H275.0006V67.4218H301.0005L328.2506 24.4219H165.0005L149.0006 36.9218V113.4218Z" fill="#eef4ff"/>
<path transform="matrix(1,0,0,-1,1,128.4221)" d="M284.0006 127.4219H320.0006L355.3336 76.756 373.8345 93.0898 400.0005 77.423V127.4219H432.0006V24.4219H400.0005L391.3336 31.4218 383.3337 23.4218H350.0005Z" fill="#eef4ff"/>
<path transform="matrix(1,0,0,-1,1,128.4221)" d="M204.0007 77.2577C204.0007 87.4746 215.5654 95.7566 229.8345 95.7566 244.1024 95.7566 255.6675 87.4746 255.6675 77.2577 255.6675 67.0408 244.1024 58.7577 229.8345 58.7577 215.5654 58.7577 204.0007 67.0408 204.0007 77.2577" fill="#00ffd9"/>
<path transform="matrix(1,0,0,-1,1,128.4221)" d="M.0085 17.8617V0H35.2091V3.2961H10.6308V7.202H35.2091V10.5352H10.6807V14.5281H35.2091V17.8617ZM76.6664 3.5946H51.6152V17.8617H41.4283V0H76.6664ZM82.8981 17.8617V0H118.0987V3.2961H93.5203V7.202H118.0987V10.5352H93.5702V14.5281H118.0987V17.8617ZM124.3179 17.8617H159.5186V14.5281H134.9402V3.2961H159.5186V0H124.3179ZM165.7378 17.8617H200.9384V14.5281H188.5124V0H178.3752V14.5281H165.7378ZM207.1576 17.8617V0H217.0335V5.3484H227.6561L234.1862 0H245.3808L238.9751 5.7093H244.3734V17.8617ZM217.3445 14.7892H234.7583V9.5278H217.3445ZM250.6051 17.8617V0H288.343V17.8617ZM260.7919 14.2172H278.2057V3.5946H260.7919ZM332.3129 0V17.8617H294.575V0H304.7618V14.2172H322.1756V0ZM338.7189 0V17.8617H349.304V0ZM355.3492 17.8617H390.5498V14.5281H365.9715V3.2961H390.5498V0H355.3492ZM396.769 0H431.9697V10.5352H407.4412V14.5281H431.9697V17.8617H396.769V7.289H421.3845V3.2961H396.769Z" fill="#aebfcf"/>
</svg>
